<svg xmlns="http://www.w3.org/2000/svg" viewBox="0 0 512 512" role="img" aria-labelledby="title desc">
  <title id="title">Ícone adaptável Aldus Meta</title>
  <desc id="desc">Ícone adaptável do aplicativo Aldus Meta em área segura.</desc>
  <defs>
    <linearGradient id="bg" x1="20" y1="20" x2="492" y2="492" gradientUnits="userSpaceOnUse">
      <stop stop-color="#123c79"/>
      <stop offset="1" stop-color="#001a47"/>
    </linearGradient>
    <linearGradient id="navy" x1="165" y1="145" x2="350" y2="380" gradientUnits="userSpaceOnUse">
      <stop stop-color="#0a2c66"/>
      <stop offset="1" stop-color="#001c4d"/>
    </linearGradient>
    <linearGradient id="star" x1="230" y1="250" x2="285" y2="345" gradientUnits="userSpaceOnUse">
      <stop stop-color="#6e95ff"/>
      <stop offset="1" stop-color="#3f73ed"/>
    </linearGradient>
  </defs>
  <rect width="512" height="512" fill="url(#bg)"/>
  <circle cx="256" cy="256" r="190" fill="#ffffff"/>
  <path d="M256 122 391 382 327 346 256 208 185 346 121 382Z" fill="url(#navy)"/>
  <path d="M256 220c-10 35-30 65-47 94-14 24-8 43 15 59l32 23 32-23c23-16 29-35 15-59-17-29-37-59-47-94Z" fill="#ffffff"/>
  <path d="m256 260 12 30 30 12-30 12-12 30-12-30-30-12 30-12Z" fill="url(#star)"/>
</svg>