<svg xmlns="http://www.w3.org/2000/svg" viewBox="0 0 512 512" role="img" aria-labelledby="title desc">
  <title id="title">Ícone Aldus Meta</title>
  <desc id="desc">Ícone do aplicativo Aldus Meta.</desc>
  <defs>
    <linearGradient id="bg" x1="40" y1="30" x2="480" y2="490" gradientUnits="userSpaceOnUse">
      <stop stop-color="#123c79"/>
      <stop offset="1" stop-color="#001a47"/>
    </linearGradient>
    <linearGradient id="navy" x1="150" y1="120" x2="365" y2="405" gradientUnits="userSpaceOnUse">
      <stop stop-color="#0a2c66"/>
      <stop offset="1" stop-color="#001c4d"/>
    </linearGradient>
    <linearGradient id="star" x1="225" y1="250" x2="290" y2="355" gradientUnits="userSpaceOnUse">
      <stop stop-color="#6e95ff"/>
      <stop offset="1" stop-color="#3f73ed"/>
    </linearGradient>
  </defs>
  <rect width="512" height="512" rx="112" fill="url(#bg)"/>
  <rect x="62" y="62" width="388" height="388" rx="96" fill="#ffffff"/>
  <path d="M256 100 411 400 338 359 256 199 174 359 101 400Z" fill="url(#navy)"/>
  <path d="M256 213c-12 40-34 75-54 108-16 28-9 49 17 67l37 27 37-27c26-18 33-39 17-67-20-33-42-68-54-108Z" fill="#ffffff"/>
  <path d="m256 258 14 34 34 14-34 14-14 34-14-34-34-14 34-14Z" fill="url(#star)"/>
</svg>