<svg xmlns="http://www.w3.org/2000/svg" viewBox="0 0 128 128" role="img" aria-labelledby="title desc">
  <title id="title">Logo Metas Concurso</title>
  <desc id="desc">Escudo abstrato com livro aberto, espada central e iniciais N S.</desc>
  <path d="M64 5 111 22v34c0 31-18 54-47 68C35 110 17 87 17 56V22L64 5Z" fill="#f7edcf"/>
  <path d="M64 12 104 27v29c0 27-15 47-40 60-25-13-40-33-40-60V27L64 12Z" fill="#082b49"/>
  <path d="M64 21 95 33v23c0 21-11 37-31 49-20-12-31-28-31-49V33L64 21Z" fill="#154c79" stroke="#c5a253" stroke-width="3"/>
  <path d="M37 43c10-2 19 1 27 7v31c-8-6-17-9-27-7V43Zm54 0c-10-2-19 1-27 7v31c8-6 17-9 27-7V43Z" fill="#ffffff" stroke="#dceaf4" stroke-width="2" stroke-linejoin="round"/>
  <text x="48" y="68" text-anchor="middle" font-family="Inter,Arial,sans-serif" font-size="18" font-weight="900" fill="#082b49">N</text>
  <text x="80" y="68" text-anchor="middle" font-family="Inter,Arial,sans-serif" font-size="18" font-weight="900" fill="#082b49">S</text>
  <path d="m64 16 7 14-4 53h-6l-4-53 7-14Z" fill="#f7edcf" stroke="#c5a253" stroke-width="2" stroke-linejoin="round"/>
  <path d="M45 80h38v8H45z" rx="4" fill="#c5a253" stroke="#f7edcf" stroke-width="2"/>
  <path d="M60 88h8v18l-4 7-4-7V88Z" fill="#f7edcf" stroke="#c5a253" stroke-width="2" stroke-linejoin="round"/>
</svg>
