<svg xmlns="http://www.w3.org/2000/svg" viewBox="0 0 512 512" role="img" aria-labelledby="title desc">
  <title id="title">Ícone maskable NS Metas Concurso</title>
  <desc id="desc">Escudo geométrico com monograma NS e seta curva ascendente em área segura.</desc>
  <defs>
    <linearGradient id="appBg" x1="0" y1="0" x2="512" y2="512" gradientUnits="userSpaceOnUse">
      <stop stop-color="#154c79"/>
      <stop offset="1" stop-color="#041b2d"/>
    </linearGradient>
    <linearGradient id="shieldBlue" x1="20" y1="14" x2="105" y2="115" gradientUnits="userSpaceOnUse">
      <stop stop-color="#2474a6"/>
      <stop offset="1" stop-color="#082b49"/>
    </linearGradient>
    <linearGradient id="arrowGold" x1="34" y1="96" x2="104" y2="42" gradientUnits="userSpaceOnUse">
      <stop stop-color="#a77d25"/>
      <stop offset="1" stop-color="#f2cf75"/>
    </linearGradient>
  </defs>
  <rect width="512" height="512" fill="url(#appBg)"/>
  <circle cx="256" cy="256" r="216" fill="#2474a6" opacity=".18"/>
  <g transform="translate(64 64) scale(3)">
    <path d="M64 5 111 23v35c0 30-18 52-47 66C35 110 17 88 17 58V23L64 5Z" fill="#f7edcf"/>
    <path d="M64 12 104 28v30c0 26-15 45-40 58-25-13-40-32-40-58V28L64 12Z" fill="url(#shieldBlue)" stroke="#c5a253" stroke-width="2"/>
    <path d="M34 35h60" stroke="#ffffff" stroke-opacity=".2" stroke-width="2" stroke-linecap="round"/>
    <text x="59" y="74" text-anchor="middle" font-family="Inter,Arial,sans-serif" font-size="34" font-weight="900" letter-spacing="-3" fill="#ffffff">NS</text>
    <path d="M33 88c13 12 34 13 49 3 14-9 21-25 18-42" fill="none" stroke="url(#arrowGold)" stroke-width="7" stroke-linecap="round"/>
    <path d="m88 53 12-12 10 14" fill="none" stroke="#f2cf75" stroke-width="7" stroke-linecap="round" stroke-linejoin="round"/>
  </g>
</svg>
