<svg xmlns="http://www.w3.org/2000/svg" viewBox="0 0 512 512" role="img" aria-labelledby="title desc">
  <title id="title">Ícone maskable NS Metas Concurso</title>
  <desc id="desc">Emblema hexagonal moderno com monograma NS e chevron dourado em área segura.</desc>
  <defs>
    <linearGradient id="appBg" x1="0" y1="0" x2="512" y2="512" gradientUnits="userSpaceOnUse">
      <stop stop-color="#154c79"/>
      <stop offset="1" stop-color="#041b2d"/>
    </linearGradient>
    <linearGradient id="hexBlue" x1="20" y1="18" x2="106" y2="111" gradientUnits="userSpaceOnUse">
      <stop stop-color="#2474a6"/>
      <stop offset=".48" stop-color="#154c79"/>
      <stop offset="1" stop-color="#041b2d"/>
    </linearGradient>
    <linearGradient id="chevronGold" x1="34" y1="83" x2="94" y2="105" gradientUnits="userSpaceOnUse">
      <stop stop-color="#a77d25"/>
      <stop offset=".5" stop-color="#f2cf75"/>
      <stop offset="1" stop-color="#c5a253"/>
    </linearGradient>
  </defs>
  <rect width="512" height="512" fill="url(#appBg)"/>
  <circle cx="256" cy="256" r="216" fill="#2474a6" opacity=".16"/>
  <g transform="translate(64 64) scale(3)">
    <path d="M64 5 112 34v55l-48 34-48-34V34L64 5Z" fill="url(#hexBlue)"/>
    <path d="M64 16 102 39v43l-38 28-38-28V39L64 16Z" fill="#f7f9fb"/>
    <path d="M64 24 94 42v34L64 98 34 76V42L64 24Z" fill="url(#hexBlue)"/>
    <text x="64" y="73" text-anchor="middle" font-family="Inter,Arial Black,Arial,sans-serif" font-size="43" font-weight="900" letter-spacing="-5" fill="#ffffff">NS</text>
    <path d="m32 84 13-10 19 13 19-13 13 10-32 24L32 84Z" fill="url(#chevronGold)" stroke="#f7edcf" stroke-width="2" stroke-linejoin="round"/>
    <path d="m64 108 12 8-12 8-12-8 12-8Z" fill="#154c79" stroke="#dceaf4" stroke-width="2"/>
  </g>
</svg>
