<svg xmlns="http://www.w3.org/2000/svg" viewBox="0 0 512 512" role="img" aria-labelledby="title desc">
  <title id="title">Símbolo Aldus Meta</title>
  <desc id="desc">Símbolo em formato de A com estrela azul.</desc>
  <defs>
    <linearGradient id="navy" x1="120" y1="70" x2="410" y2="445" gradientUnits="userSpaceOnUse">
      <stop stop-color="#0a2c66"/>
      <stop offset="1" stop-color="#001c4d"/>
    </linearGradient>
    <linearGradient id="star" x1="220" y1="235" x2="300" y2="360" gradientUnits="userSpaceOnUse">
      <stop stop-color="#6e95ff"/>
      <stop offset="1" stop-color="#3f73ed"/>
    </linearGradient>
  </defs>
  <rect x="8" y="8" width="496" height="496" rx="112" fill="#ffffff"/>
  <path d="M256 42 477 458 370 398 256 176 142 398 35 458Z" fill="url(#navy)"/>
  <path d="M256 195c-16 55-46 102-73 147-22 38-12 67 23 92l50 36 50-36c35-25 45-54 23-92-27-45-57-92-73-147Z" fill="#ffffff"/>
  <path d="m256 255 19 46 46 19-46 19-19 46-19-46-46-19 46-19Z" fill="url(#star)"/>
</svg>